# xmcd
#
# Track frame offsets: 
#        187
#        19235
#        48255
#        64960
#        85000
#        101887
#        119492
#        143167
#        161017
#        182652
#        204272
#
# Disc length: 3019 seconds
#
# Revision: 15
# Processed by: cddbd v1.5.2PL0 Copyright (c) Steve Scherf et al.
# Submitted via: ExactAudioCopy v0.99pb5
#
DISCID=960bc90b
DTITLE=Jeff Healey Band - Hell To Pay (Japan)
DYEAR=1990
DGENRE=Rock
TTITLE0=Full Circle
TTITLE1=I Think I Love You Too Much
TTITLE2=I Can't Get My Hands On You
TTITLE3=How Long Can a Man Be Strong
TTITLE4=Let It All Go
TTITLE5=Hell To Pay
TTITLE6=While My Guitar Gently Weeps
TTITLE7=Something To Hold On To
TTITLE8=How Much
TTITLE9=Highway Of Dreams
TTITLE10=Life Beyond The Sky
EXTD=YEAR: 1990
EXTT0=
EXTT1=
EXTT2=
EXTT3=
EXTT4=
EXTT5=
EXTT6=
EXTT7=
EXTT8=
EXTT9=
EXTT10=
PLAYORDER=
